<svg aria-hidden="true" style="position: absolute; width: 0; height: 0; overflow: hidden;" version="1.1" xmlns="http://www.w3.org/2000/svg" xmlns:xlink="http://www.w3.org/1999/xlink">
<defs>
<symbol id="arrow" viewBox="0 0 32 32">
<path fill="none" stroke="#fff" style="stroke: var(--color1, #fff)" stroke-linejoin="round" stroke-linecap="round" stroke-miterlimit="4" stroke-width="3.2" d="M8 12l8 8 8-8"></path>
</symbol>
<symbol id="heart" viewBox="0 0 32 32">
<path style="none" stroke-linejoin="round" stroke-linecap="round" stroke-miterlimit="4" stroke-width="2.6667" d="M27.787 6.148c-1.327-1.328-3.161-2.149-5.187-2.149s-3.859 0.821-5.187 2.149l-1.413 1.413-1.413-1.413c-1.325-1.315-3.151-2.128-5.166-2.128-4.051 0-7.335 3.284-7.335 7.335 0 2.015 0.813 3.841 2.128 5.167l11.786 11.784 11.787-11.787c1.328-1.327 2.149-3.161 2.149-5.187s-0.821-3.859-2.149-5.187l-0-0z"></path>
</symbol>
<symbol id="logo" viewBox="0 0 32 32">
<path d="M30 14.251h-1.513l-3.538-7.963c-0.28-0.617-0.89-1.039-1.599-1.039-0 0-0 0-0.001 0h-14.699c-0 0-0.001 0-0.001 0-0.709 0-1.319 0.422-1.594 1.028l-0.004 0.011-3.538 7.961h-1.513c-0.414 0-0.75 0.336-0.75 0.75s0.336 0.75 0.75 0.75v0h1.25v10.25c0 0.966 0.783 1.749 1.749 1.749v0h3.001c0.966 0 1.749-0.783 1.749-1.749v0-2.251h12.501v2.251c0 0.966 0.783 1.749 1.749 1.749v0h3.001c0.966 0 1.749-0.783 1.749-1.749v0-10.251h1.25c0.414 0 0.75-0.336 0.75-0.75s-0.336-0.75-0.75-0.75v0zM8.421 6.898c0.040-0.089 0.127-0.149 0.228-0.149h14.701c0.101 0 0.189 0.061 0.228 0.148l0.001 0.002 3.267 7.35h-21.692l3.267-7.35zM8.251 25.999c0 0 0 0 0 0 0 0.138-0.112 0.25-0.25 0.25-0 0-0.001 0-0.001 0h-3c-0.138 0-0.25-0.112-0.25-0.25v0-2.251h3.5v2.251zM26.999 26.249h-2.999c-0.138 0-0.25-0.112-0.25-0.25v0-2.251h3.499v2.251c0 0 0 0 0 0 0 0.137-0.111 0.249-0.248 0.25h-0zM27.25 22.249h-22.5v-6.499h22.5v6.499zM7.25 18.998c0-0.414 0.336-0.75 0.75-0.75h2c0.414 0 0.75 0.336 0.75 0.75s-0.336 0.75-0.75 0.75v0h-2c-0.414 0-0.75-0.336-0.75-0.75v0zM21.25 18.998c0-0.414 0.336-0.75 0.75-0.75v0h2c0.414 0 0.75 0.336 0.75 0.75s-0.336 0.75-0.75 0.75v0h-2c-0.414 0-0.75-0.336-0.75-0.75v0z"></path>
</symbol>
<symbol id="theme" viewBox="0 0 32 32">
<path fill="#fff" style="fill: var(--color1, #fff)" d="M16 30.222c7.855 0 14.222-6.367 14.222-14.222s-6.367-14.222-14.222-14.222v0c-7.855 0-14.222 6.367-14.222 14.222s6.367 14.222 14.222 14.222v0zM16 28.089v-24.178c6.677 0 12.089 5.412 12.089 12.089s-5.412 12.089-12.089 12.089v0z"></path>
</symbol>
</defs>
</svg>
